<mxfile host="app.diagrams.net" agent="Mozilla/5.0 (Windows NT 10.0; Win64; x64) AppleWebKit/537.36 (KHTML, like Gecko) Chrome/140.0.0.0 Safari/537.36" version="28.2.7">
  <diagram name="Page-1" id="Be-21d4X_abvz9L7CE6l">
    <mxGraphModel dx="822" dy="508" grid="1" gridSize="10" guides="1" tooltips="1" connect="1" arrows="1" fold="1" page="1" pageScale="1" pageWidth="850" pageHeight="1100" math="0" shadow="0">
      <root>
        <mxCell id="0" />
        <mxCell id="1" parent="0" />
        <mxCell id="zWzznixCFk7TpnTXlBiS-2" value="&lt;h1&gt;Analytics&lt;/h1&gt;" style="rounded=1;whiteSpace=wrap;html=1;absoluteArcSize=1;arcSize=14;strokeWidth=2;" vertex="1" parent="1">
          <mxGeometry x="160" y="200" width="160" height="100" as="geometry" />
        </mxCell>
        <mxCell id="zWzznixCFk7TpnTXlBiS-3" value="&lt;h1&gt;Layout&lt;/h1&gt;&lt;div&gt;Header, Footer,&lt;/div&gt;&lt;div&gt;Cookie Notice&lt;/div&gt;" style="rounded=1;whiteSpace=wrap;html=1;absoluteArcSize=1;arcSize=14;strokeWidth=2;" vertex="1" parent="1">
          <mxGeometry x="260" y="40" width="110" height="110" as="geometry" />
        </mxCell>
        <mxCell id="zWzznixCFk7TpnTXlBiS-4" value="&lt;h1&gt;Feature Flags &amp;amp; Gates&lt;/h1&gt;" style="rounded=1;whiteSpace=wrap;html=1;absoluteArcSize=1;arcSize=14;strokeWidth=2;" vertex="1" parent="1">
          <mxGeometry x="410" y="50" width="180" height="100" as="geometry" />
        </mxCell>
        <mxCell id="zWzznixCFk7TpnTXlBiS-5" value="&lt;h1 style=&quot;line-height: 100%;&quot;&gt;Misc. Chrome&lt;/h1&gt;&lt;div&gt;Structured SEO Data, Favicon, etc.&lt;/div&gt;" style="rounded=1;whiteSpace=wrap;html=1;absoluteArcSize=1;arcSize=14;strokeWidth=2;" vertex="1" parent="1">
          <mxGeometry x="10" y="55" width="210" height="90" as="geometry" />
        </mxCell>
        <mxCell id="zWzznixCFk7TpnTXlBiS-8" value="&lt;h1&gt;Home Page&lt;/h1&gt;" style="swimlane;whiteSpace=wrap;html=1;startSize=40;" vertex="1" parent="1">
          <mxGeometry x="340" y="240" width="380" height="390" as="geometry" />
        </mxCell>
        <mxCell id="zWzznixCFk7TpnTXlBiS-7" value="Seasonal&lt;div&gt;Hero&lt;/div&gt;" style="rounded=1;whiteSpace=wrap;html=1;absoluteArcSize=1;arcSize=14;strokeWidth=2;fontSize=19;" vertex="1" parent="zWzznixCFk7TpnTXlBiS-8">
          <mxGeometry x="230" y="140" width="130" height="60" as="geometry" />
        </mxCell>
        <mxCell id="zWzznixCFk7TpnTXlBiS-9" value="&lt;font style=&quot;font-size: 19px;&quot;&gt;Promotions&lt;/font&gt;&lt;div&gt;(for events &amp;amp; vendors)&lt;/div&gt;" style="rounded=1;whiteSpace=wrap;html=1;absoluteArcSize=1;arcSize=14;strokeWidth=2;" vertex="1" parent="zWzznixCFk7TpnTXlBiS-8">
          <mxGeometry x="20" y="60" width="120" height="60" as="geometry" />
        </mxCell>
        <mxCell id="zWzznixCFk7TpnTXlBiS-10" value="Search bar" style="rounded=1;whiteSpace=wrap;html=1;absoluteArcSize=1;arcSize=14;strokeWidth=2;" vertex="1" parent="zWzznixCFk7TpnTXlBiS-8">
          <mxGeometry x="20" y="140" width="70" height="40" as="geometry" />
        </mxCell>
        <mxCell id="zWzznixCFk7TpnTXlBiS-11" value="Countdown to opening day" style="rounded=1;whiteSpace=wrap;html=1;absoluteArcSize=1;arcSize=14;strokeWidth=2;" vertex="1" parent="zWzznixCFk7TpnTXlBiS-8">
          <mxGeometry x="110" y="140" width="100" height="40" as="geometry" />
        </mxCell>
        <mxCell id="zWzznixCFk7TpnTXlBiS-12" value="Calendar" style="rounded=1;whiteSpace=wrap;html=1;absoluteArcSize=1;arcSize=14;strokeWidth=2;fontSize=20;" vertex="1" parent="zWzznixCFk7TpnTXlBiS-8">
          <mxGeometry x="160" y="60" width="200" height="60" as="geometry" />
        </mxCell>
        <mxCell id="zWzznixCFk7TpnTXlBiS-13" value="Weather advisory&lt;div&gt;with forecast&lt;/div&gt;" style="rounded=1;whiteSpace=wrap;html=1;absoluteArcSize=1;arcSize=14;strokeWidth=2;fontSize=19;" vertex="1" parent="zWzznixCFk7TpnTXlBiS-8">
          <mxGeometry x="20" y="200" width="190" height="80" as="geometry" />
        </mxCell>
        <mxCell id="zWzznixCFk7TpnTXlBiS-14" value="Pricing Info" style="rounded=1;whiteSpace=wrap;html=1;absoluteArcSize=1;arcSize=14;strokeWidth=2;fontSize=18;fontStyle=2" vertex="1" parent="zWzznixCFk7TpnTXlBiS-8">
          <mxGeometry x="230" y="220" width="130" height="70" as="geometry" />
        </mxCell>
        <mxCell id="zWzznixCFk7TpnTXlBiS-15" value="Testimonials" style="rounded=1;whiteSpace=wrap;html=1;absoluteArcSize=1;arcSize=14;strokeWidth=2;" vertex="1" parent="zWzznixCFk7TpnTXlBiS-8">
          <mxGeometry x="20" y="300" width="90" height="70" as="geometry" />
        </mxCell>
        <mxCell id="zWzznixCFk7TpnTXlBiS-16" value="Facebook Feed" style="rounded=1;whiteSpace=wrap;html=1;absoluteArcSize=1;arcSize=14;strokeWidth=2;fontSize=19;" vertex="1" parent="zWzznixCFk7TpnTXlBiS-8">
          <mxGeometry x="210" y="310" width="150" height="60" as="geometry" />
        </mxCell>
        <mxCell id="zWzznixCFk7TpnTXlBiS-17" value="Contact Form" style="rounded=1;whiteSpace=wrap;html=1;absoluteArcSize=1;arcSize=14;strokeWidth=2;" vertex="1" parent="zWzznixCFk7TpnTXlBiS-8">
          <mxGeometry x="130" y="300" width="60" height="70" as="geometry" />
        </mxCell>
      </root>
    </mxGraphModel>
  </diagram>
</mxfile>
